<?xml version="1.0" encoding="UTF-8"?>
<svg width="900" height="600" viewBox="0 0 900 600" xmlns="http://www.w3.org/2000/svg">
    <defs>
        <style>
            @import url('https://fonts.googleapis.com/css2?family=Noto+Sans+KR:wght@400;700&amp;display=swap');
            /* 기본 스타일 */
            .bg { fill: #ffffff; }
            .room { fill: #e5e7eb; stroke: #9ca3af; stroke-width: 2; }
            .medical-room { fill: #dbeafe; stroke: #3b82f6; stroke-width: 2; }
            .convenience { fill: #e0f2fe; stroke: #0891b2; stroke-width: 2; }
            .doorway { stroke: #ffffff; stroke-width: 8; }
            /* 텍스트 스타일 */
            .text-base { font-family: "Noto Sans KR", sans-serif; text-anchor: middle; fill: #1e293b; font-weight: 600; }
            .text-large { font-size: 16px; }
            .text-medium { font-size: 14px; }
            .icon-text { font-size: 12px; fill: #475569; }
        </style>
    </defs>
    <rect width="900" height="600" class="bg"/>
    <g id="floor-layout">
        <path d="M 50 100 L 350 100 L 350 200 L 200 200 L 200 300 L 50 300 Z" class="medical-room" id="dept-emergency" data-name="응급의료센터" data-interactive="true"/>
        <line x1="200" y1="300" x2="250" y2="300" class="doorway"/>
        <text x="180" y="190" class="text-base text-large">응급의료센터</text>
        <rect x="380" y="100" width="200" height="120" class="medical-room" id="dept-laboratory" data-name="진단검사의학과" data-interactive="true"/>
        <line x1="450" y1="220" x2="510" y2="220" class="doorway"/>
        <text x="480" y="165" class="text-base text-large">진단검사의학과</text>
        <rect x="610" y="100" width="140" height="120" class="medical-room" id="room-blood-collection" data-name="채혈실" data-interactive="true"/>
        <line x1="650" y1="220" x2="710" y2="220" class="doorway"/>
        <text x="680" y="165" class="text-base text-large">채혈실</text>
        <rect x="50" y="350" width="180" height="100" class="medical-room" id="room-blood-donation" data-name="헌혈실" data-interactive="true"/>
        <line x1="130" y1="350" x2="170" y2="350" class="doorway"/>
        <text x="140" y="405" class="text-base text-large">헌혈실</text>
        <g id="convenience-area">
            <rect x="470" y="280" width="120" height="80" class="convenience" id="store-convinience" data-name="편의점" data-interactive="true"/>
            <line x1="510" y1="280" x2="550" y2="280" class="doorway"/>
            <text x="530" y="325" class="text-base text-medium">편의점</text>
            <rect x="470" y="380" width="120" height="80" class="convenience" id="store-cafe" data-name="카페" data-interactive="true"/>
            <line x1="510" y1="380" x2="550" y2="380" class="doorway"/>
            <text x="530" y="425" class="text-base text-medium">카페</text>
            <rect x="620" y="280" width="120" height="180" class="convenience" id="store-bank" data-name="은행" data-interactive="true"/>
            <line x1="660" y1="280" x2="700" y2="280" class="doorway"/>
            <text x="680" y="375" class="text-base text-medium">은행</text>
        </g>
        <rect x="280" y="480" width="200" height="80" class="room" id="room-storage" data-name="중앙창고" data-interactive="true"/>
        <line x1="350" y1="480" x2="410" y2="480" class="doorway"/>
        <text x="380" y="525" class="text-base text-medium">중앙창고</text>
        <g id="facilities">
            <g transform="translate(450, 65)" id="info-main-gate" data-name="정문" data-interactive="true">
                <path d="M0 -15 L0 15 M-5 10 L0 15 L5 10" stroke="#475569" stroke-width="3" fill="none"/>
                <text y="30" class="text-base icon-text">정문</text>
            </g>
            <g transform="translate(355, 355)" id="facility-elevator-1" data-name="엘리베이터" data-interactive="true">
                <rect x="-20" y="-20" width="40" height="40" fill="none" stroke="#475569" stroke-width="2"/>
                <path d="M-10 -8 L0 -15 L10 -8 M-10 8 L0 15 L10 8" stroke="#475569" stroke-width="2" fill="none"/>
                <text y="40" class="text-base icon-text">엘리베이터</text>
            </g>
            <g transform="translate(180, 495)" id="facility-restroom-1" data-name="화장실" data-interactive="true">
                <circle cx="-8" cy="-8" r="4" fill="#475569"/>
                <rect x="-10" y="-2" width="4" height="10" fill="#475569"/>
                <circle cx="8" cy="-8" r="4" fill="#475569"/>
                <path d="M 6 -2 L 10 -2 L 10 8 L 8 8 L 8 3 L 6 3 Z" fill="#475569"/>
                <text y="30" class="text-base icon-text">화장실</text>
            </g>
            <g transform="translate(780, 380)" id="facility-stairs-1" data-name="계단" data-interactive="true">
                <rect x="-20" y="-20" width="40" height="40" fill="none" stroke="#475569" stroke-width="2"/>
                <path d="M-12 -10 L-12 -6 L-6 -6 L-6 -2 L0 -2 L0 2 L6 2 L6 6 L12 6 L12 10" stroke="#475569" stroke-width="2" fill="none"/>
                <text y="40" class="text-base icon-text">계단</text>
            </g>
            <g transform="translate(680, 515)" id="info-desk-1" data-name="안내데스크" data-interactive="true">
                <circle cx="0" cy="0" r="15" fill="none" stroke="#475569" stroke-width="2"/>
                <text x="0" y="6" font-size="16" text-anchor="middle" fill="#475569" font-weight="bold">i</text>
                <text y="35" class="text-base icon-text">안내데스크</text>
            </g>
            <g transform="translate(800, 220)" id="conn-cancer-center" data-name="암센터 연결통로" data-interactive="true">
                <rect x="-20" y="-20" width="40" height="40" fill="none" stroke="#475569" stroke-width="2"/>
                <path d="M-15 0 L15 0 M-10 -5 L-15 0 L-10 5 M10 -5 L15 0 L10 5" stroke="#475569" stroke-width="2" fill="none"/>
                <text y="40" class="text-base icon-text">암센터연결</text>
            </g>
        </g>
    </g>
</svg>